<svg width="53" height="391" viewBox="0 0 53 391" fill="none" xmlns="http://www.w3.org/2000/svg">
<path d="M25.0001 0H27.0001V330H26.003H25.0001V0Z" fill="#4444DA"/>
<path d="M21 340C22.1046 340 23 339.105 23 338C23 336.895 22.1046 336 21 336C19.8954 336 19 336.895 19 338C19 339.105 19.8954 340 21 340Z" fill="#4444DA"/>
<path d="M33 338C33 339.105 32.1046 340 31 340C29.8954 340 29 339.105 29 338C29 336.895 29.8954 336 31 336C32.1046 336 33 336.895 33 338Z" fill="#4444DA"/>
<path d="M25 359C25 358.448 25.4477 358 26 358C26.5523 358 27 358.448 27 359V378.1C29.2822 378.563 31 380.581 31 383C31 383.552 30.5523 384 30 384C29.4477 384 29 383.552 29 383C29 381.343 27.6569 380 26 380C24.3431 380 23 381.343 23 383C23 383.552 22.5523 384 22 384C21.4477 384 21 383.552 21 383C21 380.581 22.7178 378.563 25 378.1V359Z" fill="#4444DA"/>
<path fill-rule="evenodd" clip-rule="evenodd" d="M26.003 330C33.0443 330 38.7525 336.268 38.7525 343.999C38.7525 347.263 37.7354 350.266 36.0304 352.646L35.9552 352.75L35.8795 352.853C35.8189 352.934 35.7576 353.015 35.6954 353.095L35.6715 353.125C35.6474 353.156 35.6231 353.187 35.5987 353.217L35.5496 353.279C36.7963 354.227 37.9245 355.355 38.9039 356.63C41.8729 355.617 46.6183 352.262 50.0716 343.628C50.2767 343.115 50.8585 342.866 51.3714 343.071C51.8841 343.276 52.1336 343.858 51.9285 344.371C48.474 353.007 43.6538 356.914 40.0691 358.332C41.0679 359.974 41.8426 361.8 42.344 363.755C42.5331 363.683 42.7457 363.667 42.9564 363.723C46.0711 364.547 49.828 366.208 52.7291 369.316C53.106 369.72 53.0841 370.353 52.6803 370.729C52.2767 371.106 51.6439 371.084 51.2669 370.681C48.7945 368.032 45.5678 366.528 42.7506 365.739C42.9146 366.799 43 367.888 43 369C43 371.479 42.5752 373.847 41.8026 376.018C41.8851 376.035 41.9668 376.063 42.046 376.102C45.4969 377.814 49.7777 381.754 52.9266 389.626C53.1317 390.139 52.8822 390.721 52.3695 390.926C51.8565 391.131 51.2747 390.882 51.0697 390.369C48.0699 382.87 44.0929 379.35 41.1573 377.894C41.1214 377.876 41.087 377.857 41.0541 377.835C38.2087 383.879 32.5349 388 26 388C19.6209 388 14.0625 384.073 11.1543 378.264C8.30712 379.91 4.70195 383.442 1.93099 390.369C1.72591 390.882 1.14388 391.131 0.631182 390.926C0.118487 390.721 -0.131025 390.139 0.0740532 389.626C3.04012 382.211 7.01058 378.285 10.3463 376.423C9.47908 374.142 8.99935 371.633 8.99935 368.999C8.99935 367.999 9.06844 367.018 9.2015 366.06C6.65413 366.912 3.90169 368.355 1.73104 370.681C1.35408 371.084 0.72127 371.106 0.317706 370.729C-0.0861027 370.353 -0.107831 369.72 0.268878 369.316C3.04573 366.341 6.60579 364.692 9.63484 363.834C10.1356 361.849 10.9178 359.995 11.93 358.331C8.34578 356.912 3.52693 353.005 0.0733208 344.371C-0.131757 343.858 0.117511 343.276 0.63045 343.071C1.14315 342.866 1.72518 343.115 1.93025 343.628C5.38265 352.259 10.1261 355.615 13.0953 356.629C13.87 355.621 14.7376 354.704 15.6834 353.896C15.827 353.773 15.9722 353.653 16.1192 353.535C16.2296 353.447 16.3409 353.36 16.4532 353.275C16.3905 353.197 16.3284 353.118 16.2672 353.039C16.1668 352.909 16.0684 352.776 15.9722 352.642C14.2691 350.262 13.2535 347.261 13.2535 343.999C13.2535 336.268 18.9615 330 26.003 330ZM33.8883 352.165C33.9209 352.116 33.9557 352.069 33.9928 352.023C35.6976 349.91 36.7525 347.104 36.7525 343.999C36.7525 337.192 31.7677 332 26.003 332C20.2381 332 15.2535 337.192 15.2535 343.999C15.2535 347.103 16.3072 349.907 18.0103 352.02C18.0476 352.066 18.0827 352.114 18.1155 352.163C20.4721 350.781 23.1544 350 26 350C28.8471 350 31.5308 350.782 33.8883 352.165ZM11.0671 367.371C11.3949 363.458 12.8919 359.957 15.1278 357.292C17.8931 354.009 21.7888 352 26 352C29.9097 352 33.5475 353.731 36.2613 356.606C39.1555 359.687 40.9981 364.077 40.9981 368.999C40.9981 378.602 34.0792 385.998 25.9986 385.998C19.9722 385.998 14.5918 381.884 12.2459 375.809C11.4468 373.738 11 371.44 11 369C11 368.45 11.0227 367.906 11.0671 367.371Z" fill="#4444DA"/>
</svg>
