<svg width="26" height="171" viewBox="0 0 26 171" fill="none" xmlns="http://www.w3.org/2000/svg">
<path d="M11.5002 144C11.5002 144.552 11.0525 145 10.5002 145C9.94799 145 9.50023 144.552 9.50023 144C9.50023 143.448 9.94799 143 10.5002 143C11.0525 143 11.5002 143.448 11.5002 144Z" fill="#4444DA"/>
<path d="M15.5002 145C16.0525 145 16.5002 144.552 16.5002 144C16.5002 143.448 16.0525 143 15.5002 143C14.948 143 14.5002 143.448 14.5002 144C14.5002 144.552 14.948 145 15.5002 145Z" fill="#4444DA"/>
<path fill-rule="evenodd" clip-rule="evenodd" d="M13.5002 0H12.5002V140H13.0002C9.47948 140 6.62523 143.134 6.62523 147C6.62523 148.631 7.13353 150.132 7.98559 151.322L8.03515 151.391L8.07128 151.44C8.12182 151.507 8.17333 151.574 8.22606 151.639C8.0952 151.738 7.96679 151.842 7.8413 151.949C7.36864 152.353 6.93529 152.811 6.54809 153.315C5.06371 152.809 2.69115 151.131 0.96459 146.814C0.861806 146.558 0.571035 146.433 0.314443 146.536C0.0580954 146.638 -0.0666604 146.929 0.0358786 147.186C1.76317 151.503 4.17309 153.457 5.96557 154.166C5.45946 154.998 5.06835 155.925 4.81811 156.918C3.30346 157.347 1.52318 158.171 0.134756 159.659C-0.053721 159.861 -0.0427347 160.177 0.15917 160.366C0.36083 160.554 0.677236 160.543 0.865713 160.341C1.95116 159.178 3.32763 158.456 4.60131 158.031C4.53466 158.51 4.50023 159 4.50023 159.5C4.50023 160.817 4.74022 162.071 5.17357 163.212C3.50536 164.142 1.51952 166.106 0.0361228 169.814C-0.0664163 170.071 0.0580954 170.362 0.314687 170.464C0.571035 170.567 0.86205 170.442 0.96459 170.186C2.35058 166.721 4.15355 164.955 5.57738 164.132C7.03148 167.037 9.81078 169 13.0002 169C16.1897 169 18.969 167.037 20.4231 164.132C21.8472 164.955 23.6501 166.721 25.0359 170.186C25.1384 170.442 25.4294 170.567 25.6858 170.464C25.9421 170.362 26.0669 170.071 25.9643 169.814C24.4809 166.106 22.4949 164.142 20.8269 163.212C21.2602 162.071 21.5002 160.817 21.5002 159.5C21.5002 159 21.4658 158.51 21.3992 158.031C22.6724 158.456 24.0491 159.178 25.1348 160.341C25.3232 160.543 25.6396 160.554 25.8413 160.366C26.0432 160.177 26.0542 159.861 25.8657 159.659C24.4775 158.172 22.6977 157.347 21.1824 156.918C20.9321 155.925 20.541 154.998 20.0349 154.166C21.8274 153.457 24.2373 151.503 25.9643 147.186C26.0669 146.929 25.9424 146.638 25.6858 146.536C25.4294 146.433 25.1384 146.558 25.0359 146.814C23.3093 151.131 20.9368 152.809 19.4524 153.315C19.0652 152.811 18.6318 152.353 18.1592 151.949C18.0928 151.892 18.0256 151.837 17.9575 151.782L17.9104 151.745L17.8562 151.702L17.7744 151.639C17.8249 151.576 17.8745 151.513 17.9231 151.448C17.9541 151.406 17.9846 151.365 18.0149 151.322C18.8669 150.132 19.3752 148.631 19.3752 147C19.3752 143.134 16.521 140 13.0002 140H13.5002V0ZM16.9961 151.011C16.8264 151.221 16.749 151.492 16.7817 151.76C16.8144 152.028 16.9541 152.272 17.1692 152.435C19.1582 153.947 20.5002 156.53 20.5002 159.5C20.5002 164.302 17.0408 168 13.0002 168C8.95971 168 5.50023 164.302 5.50023 159.5C5.50023 156.53 6.84227 153.947 8.83129 152.435C9.04638 152.272 9.18602 152.028 9.21874 151.76C9.25145 151.492 9.17406 151.221 9.00438 151.011C8.15233 149.955 7.62523 148.552 7.62523 147C7.62523 143.596 10.1177 141 13.0002 141C15.8828 141 18.3752 143.596 18.3752 147C18.3752 148.552 17.8481 149.955 16.9961 151.011Z" fill="#4444DA"/>
</svg>
