<svg width="53" height="391" viewBox="0 0 53 391" fill="none" xmlns="http://www.w3.org/2000/svg">
<path d="M27 1C27 0.447715 26.5523 0 26 0C25.4477 0 25 0.447715 25 1V2.50457C25 3.05686 25.4477 3.50457 26 3.50457C26.5523 3.50457 27 3.05686 27 2.50457V1Z" fill="#424AD2"/>
<path d="M27 7.51982C27 6.96753 26.5523 6.51982 26 6.51982C25.4477 6.51982 25 6.96753 25 7.51982V10.529C25 11.0812 25.4477 11.529 26 11.529C26.5523 11.529 27 11.0812 27 10.529V7.51982Z" fill="#424AD2"/>
<path d="M27 15.5442C27 14.9919 26.5523 14.5442 26 14.5442C25.4477 14.5442 25 14.9919 25 15.5442V18.5534C25 19.1056 25.4477 19.5534 26 19.5534C26.5523 19.5534 27 19.1056 27 18.5534V15.5442Z" fill="#424AD2"/>
<path d="M27 23.5686C27 23.0163 26.5523 22.5686 26 22.5686C25.4477 22.5686 25 23.0163 25 23.5686V26.5777C25 27.13 25.4477 27.5777 26 27.5777C26.5523 27.5777 27 27.13 27 26.5777V23.5686Z" fill="#424AD2"/>
<path d="M27 31.593C27 31.0407 26.5523 30.593 26 30.593C25.4477 30.593 25 31.0407 25 31.593V34.6021C25 35.1544 25.4477 35.6021 26 35.6021C26.5523 35.6021 27 35.1544 27 34.6021V31.593Z" fill="#424AD2"/>
<path d="M27 39.6174C27 39.0651 26.5523 38.6174 26 38.6174C25.4477 38.6174 25 39.0651 25 39.6174V42.6265C25 43.1788 25.4477 43.6265 26 43.6265C26.5523 43.6265 27 43.1788 27 42.6265V39.6174Z" fill="#424AD2"/>
<path d="M27 47.6418C27 47.0895 26.5523 46.6418 26 46.6418C25.4477 46.6418 25 47.0895 25 47.6418V50.6509C25 51.2032 25.4477 51.6509 26 51.6509C26.5523 51.6509 27 51.2032 27 50.6509V47.6418Z" fill="#424AD2"/>
<path d="M27 55.6662C27 55.1139 26.5523 54.6662 26 54.6662C25.4477 54.6662 25 55.1139 25 55.6662V58.6753C25 59.2276 25.4477 59.6753 26 59.6753C26.5523 59.6753 27 59.2276 27 58.6753V55.6662Z" fill="#424AD2"/>
<path d="M27 63.6906C27 63.1383 26.5523 62.6906 26 62.6906C25.4477 62.6906 25 63.1383 25 63.6906V66.6997C25 67.252 25.4477 67.6997 26 67.6997C26.5523 67.6997 27 67.252 27 66.6997V63.6906Z" fill="#424AD2"/>
<path d="M27 71.7149C27 71.1627 26.5523 70.7149 26 70.7149C25.4477 70.7149 25 71.1627 25 71.7149V74.7241C25 75.2764 25.4477 75.7241 26 75.7241C26.5523 75.7241 27 75.2764 27 74.7241V71.7149Z" fill="#424AD2"/>
<path d="M27 79.7393C27 79.187 26.5523 78.7393 26 78.7393C25.4477 78.7393 25 79.187 25 79.7393V82.7485C25 83.3008 25.4477 83.7485 26 83.7485C26.5523 83.7485 27 83.3008 27 82.7485V79.7393Z" fill="#424AD2"/>
<path d="M27 87.7637C27 87.2114 26.5523 86.7637 26 86.7637C25.4477 86.7637 25 87.2114 25 87.7637V90.7729C25 91.3251 25.4477 91.7729 26 91.7729C26.5523 91.7729 27 91.3251 27 90.7729V87.7637Z" fill="#424AD2"/>
<path d="M27 95.7881C27 95.2358 26.5523 94.7881 26 94.7881C25.4477 94.7881 25 95.2358 25 95.7881V98.7973C25 99.3495 25.4477 99.7973 26 99.7973C26.5523 99.7973 27 99.3495 27 98.7973V95.7881Z" fill="#424AD2"/>
<path d="M27 103.813C27 103.26 26.5523 102.813 26 102.813C25.4477 102.813 25 103.26 25 103.813V106.822C25 107.374 25.4477 107.822 26 107.822C26.5523 107.822 27 107.374 27 106.822V103.813Z" fill="#424AD2"/>
<path d="M27 111.837C27 111.285 26.5523 110.837 26 110.837C25.4477 110.837 25 111.285 25 111.837V114.846C25 115.398 25.4477 115.846 26 115.846C26.5523 115.846 27 115.398 27 114.846V111.837Z" fill="#424AD2"/>
<path d="M27 119.861C27 119.309 26.5523 118.861 26 118.861C25.4477 118.861 25 119.309 25 119.861V122.87C25 123.423 25.4477 123.87 26 123.87C26.5523 123.87 27 123.423 27 122.87V119.861Z" fill="#424AD2"/>
<path d="M27 127.886C27 127.333 26.5523 126.886 26 126.886C25.4477 126.886 25 127.333 25 127.886V130.895C25 131.447 25.4477 131.895 26 131.895C26.5523 131.895 27 131.447 27 130.895V127.886Z" fill="#424AD2"/>
<path d="M27 135.91C27 135.358 26.5523 134.91 26 134.91C25.4477 134.91 25 135.358 25 135.91V138.919C25 139.471 25.4477 139.919 26 139.919C26.5523 139.919 27 139.471 27 138.919V135.91Z" fill="#424AD2"/>
<path d="M27 143.934C27 143.382 26.5523 142.934 26 142.934C25.4477 142.934 25 143.382 25 143.934V146.944C25 147.496 25.4477 147.944 26 147.944C26.5523 147.944 27 147.496 27 146.944V143.934Z" fill="#424AD2"/>
<path d="M27 151.959C27 151.407 26.5523 150.959 26 150.959C25.4477 150.959 25 151.407 25 151.959L25 154.968C25 155.52 25.4477 155.968 26 155.968C26.5523 155.968 27 155.52 27 154.968V151.959Z" fill="#424AD2"/>
<path d="M27 159.983C27 159.431 26.5523 158.983 26 158.983C25.4477 158.983 25 159.431 25 159.983V162.992C25 163.545 25.4477 163.992 26 163.992C26.5523 163.992 27 163.545 27 162.992V159.983Z" fill="#424AD2"/>
<path d="M27 168.008C27 167.455 26.5523 167.008 26 167.008C25.4477 167.008 25 167.455 25 168.008V171.017C25 171.569 25.4477 172.017 26 172.017C26.5523 172.017 27 171.569 27 171.017V168.008Z" fill="#424AD2"/>
<path d="M27 176.032C27 175.48 26.5523 175.032 26 175.032C25.4477 175.032 25 175.48 25 176.032V179.041C25 179.593 25.4477 180.041 26 180.041C26.5523 180.041 27 179.593 27 179.041V176.032Z" fill="#424AD2"/>
<path d="M27 184.056C27 183.504 26.5523 183.056 26 183.056C25.4477 183.056 25 183.504 25 184.056V187.066C25 187.618 25.4477 188.066 26 188.066C26.5523 188.066 27 187.618 27 187.066V184.056Z" fill="#424AD2"/>
<path d="M27 192.081C27 191.528 26.5523 191.081 26 191.081C25.4477 191.081 25 191.528 25 192.081V195.09C25 195.642 25.4477 196.09 26 196.09C26.5523 196.09 27 195.642 27 195.09V192.081Z" fill="#424AD2"/>
<path d="M27 200.105C27 199.553 26.5523 199.105 26 199.105C25.4477 199.105 25 199.553 25 200.105V203.114C25 203.667 25.4477 204.114 26 204.114C26.5523 204.114 27 203.667 27 203.114V200.105Z" fill="#424AD2"/>
<path d="M27 208.13C27 207.577 26.5523 207.13 26 207.13C25.4477 207.13 25 207.577 25 208.13V211.139C25 211.691 25.4477 212.139 26 212.139C26.5523 212.139 27 211.691 27 211.139V208.13Z" fill="#424AD2"/>
<path d="M27 216.154C27 215.602 26.5523 215.154 26 215.154C25.4477 215.154 25 215.602 25 216.154V219.163C25 219.715 25.4477 220.163 26 220.163C26.5523 220.163 27 219.715 27 219.163V216.154Z" fill="#424AD2"/>
<path d="M27 224.178C27 223.626 26.5523 223.178 26 223.178C25.4477 223.178 25 223.626 25 224.178V227.187C25 227.74 25.4477 228.187 26 228.187C26.5523 228.187 27 227.74 27 227.187V224.178Z" fill="#424AD2"/>
<path d="M27 232.203C27 231.65 26.5523 231.203 26 231.203C25.4477 231.203 25 231.65 25 232.203V235.212C25 235.764 25.4477 236.212 26 236.212C26.5523 236.212 27 235.764 27 235.212V232.203Z" fill="#424AD2"/>
<path d="M27 240.227C27 239.675 26.5523 239.227 26 239.227C25.4477 239.227 25 239.675 25 240.227L25 243.236C25 243.788 25.4477 244.236 26 244.236C26.5523 244.236 27 243.788 27 243.236L27 240.227Z" fill="#424AD2"/>
<path d="M27 248.251C27 247.699 26.5523 247.251 26 247.251C25.4477 247.251 25 247.699 25 248.251V251.261C25 251.813 25.4477 252.261 26 252.261C26.5523 252.261 27 251.813 27 251.261V248.251Z" fill="#424AD2"/>
<path d="M27 256.276C27 255.724 26.5523 255.276 26 255.276C25.4477 255.276 25 255.724 25 256.276V259.285C25 259.837 25.4477 260.285 26 260.285C26.5523 260.285 27 259.837 27 259.285V256.276Z" fill="#424AD2"/>
<path d="M27 264.3C27 263.748 26.5523 263.3 26 263.3C25.4477 263.3 25 263.748 25 264.3V267.309C25 267.862 25.4477 268.309 26 268.309C26.5523 268.309 27 267.862 27 267.309V264.3Z" fill="#424AD2"/>
<path d="M27 272.325C27 271.772 26.5523 271.325 26 271.325C25.4477 271.325 25 271.772 25 272.325V275.334C25 275.886 25.4477 276.334 26 276.334C26.5523 276.334 27 275.886 27 275.334V272.325Z" fill="#424AD2"/>
<path d="M27 280.349C27 279.797 26.5523 279.349 26 279.349C25.4477 279.349 25 279.797 25 280.349V283.358C25 283.91 25.4477 284.358 26 284.358C26.5523 284.358 27 283.91 27 283.358L27 280.349Z" fill="#424AD2"/>
<path d="M27 288.373C27 287.821 26.5523 287.373 26 287.373C25.4477 287.373 25 287.821 25 288.373V291.383C25 291.935 25.4477 292.383 26 292.383C26.5523 292.383 27 291.935 27 291.383V288.373Z" fill="#424AD2"/>
<path d="M27 296.398C27 295.846 26.5523 295.398 26 295.398C25.4477 295.398 25 295.846 25 296.398V299.407C25 299.959 25.4477 300.407 26 300.407C26.5523 300.407 27 299.959 27 299.407V296.398Z" fill="#424AD2"/>
<path d="M27 304.422C27 303.87 26.5523 303.422 26 303.422C25.4477 303.422 25 303.87 25 304.422V307.431C25 307.984 25.4477 308.431 26 308.431C26.5523 308.431 27 307.984 27 307.431V304.422Z" fill="#424AD2"/>
<path d="M27 312.447C27 311.894 26.5523 311.447 26 311.447C25.4477 311.447 25 311.894 25 312.447V315.456C25 316.008 25.4477 316.456 26 316.456C26.5523 316.456 27 316.008 27 315.456V312.447Z" fill="#424AD2"/>
<path d="M27 320.471C27 319.919 26.5523 319.471 26 319.471C25.4477 319.471 25 319.919 25 320.471V323.48C25 324.033 25.4477 324.48 26 324.48C26.5523 324.48 27 324.033 27 323.48V320.471Z" fill="#424AD2"/>
<path d="M23 338C23 339.105 22.1046 340 21 340C19.8954 340 19 339.105 19 338C19 336.895 19.8954 336 21 336C22.1046 336 23 336.895 23 338Z" fill="#424AD2"/>
<path d="M31 340C32.1046 340 33 339.105 33 338C33 336.895 32.1046 336 31 336C29.8954 336 29 336.895 29 338C29 339.105 29.8954 340 31 340Z" fill="#424AD2"/>
<path d="M25 359C25 358.448 25.4477 358 26 358C26.5523 358 27 358.448 27 359V378.1C29.2822 378.563 31 380.581 31 383C31 383.552 30.5523 384 30 384C29.4477 384 29 383.552 29 383C29 381.343 27.6569 380 26 380C24.3431 380 23 381.343 23 383C23 383.552 22.5523 384 22 384C21.4477 384 21 383.552 21 383C21 380.581 22.7178 378.563 25 378.1V359Z" fill="#424AD2"/>
<path fill-rule="evenodd" clip-rule="evenodd" d="M27 328.496C27 327.943 26.5523 327.496 26 327.496C25.4477 327.496 25 327.943 25 328.496L25 330C25 330.014 25.0003 330.028 25.0009 330.043C18.4278 330.604 13.2535 336.638 13.2535 343.999C13.2535 347.261 14.2691 350.262 15.9722 352.642C16.0684 352.776 16.1668 352.909 16.2672 353.039C16.3284 353.118 16.3905 353.197 16.4532 353.275C16.3409 353.36 16.2296 353.447 16.1192 353.535C15.9722 353.653 15.827 353.773 15.6834 353.896C14.7376 354.704 13.87 355.621 13.0953 356.629C10.1261 355.615 5.38265 352.259 1.93025 343.628C1.72518 343.115 1.14315 342.866 0.63045 343.071C0.117511 343.276 -0.131758 343.858 0.0733203 344.371C3.52693 353.005 8.34578 356.912 11.93 358.331C10.9178 359.995 10.1356 361.849 9.63484 363.834C6.60579 364.692 3.04573 366.341 0.268878 369.316C-0.107831 369.72 -0.0861027 370.353 0.317706 370.729C0.72127 371.106 1.35408 371.084 1.73104 370.681C3.90169 368.355 6.65413 366.912 9.2015 366.06C9.06844 367.018 8.99935 367.999 8.99935 368.999C8.99935 371.633 9.47908 374.142 10.3463 376.423C7.01058 378.285 3.04012 382.211 0.0740527 389.626C-0.131025 390.139 0.118487 390.721 0.631182 390.926C1.14388 391.131 1.72591 390.882 1.93099 390.369C4.70195 383.442 8.30712 379.91 11.1543 378.264C14.0625 384.073 19.6209 388 26 388C32.5349 388 38.2087 383.879 41.0541 377.835C41.087 377.857 41.1214 377.876 41.1573 377.894C44.0929 379.35 48.0699 382.87 51.0697 390.369C51.2747 390.882 51.8565 391.131 52.3695 390.926C52.8822 390.721 53.1317 390.139 52.9266 389.626C49.7777 381.754 45.4969 377.814 42.046 376.102C41.9668 376.063 41.8851 376.035 41.8026 376.018C42.5752 373.847 43 371.479 43 369C43 367.888 42.9146 366.799 42.7506 365.739C45.5678 366.528 48.7945 368.032 51.2669 370.681C51.6439 371.084 52.2767 371.106 52.6803 370.729C53.0841 370.353 53.106 369.72 52.7291 369.316C49.828 366.208 46.0711 364.547 42.9564 363.723C42.7457 363.667 42.5331 363.683 42.344 363.755C41.8426 361.8 41.0679 359.974 40.0691 358.332C43.6538 356.914 48.474 353.007 51.9285 344.371C52.1336 343.858 51.8841 343.276 51.3714 343.071C50.8585 342.866 50.2767 343.115 50.0716 343.628C46.6183 352.262 41.8729 355.617 38.9039 356.63C37.9245 355.355 36.7963 354.227 35.5496 353.279L35.5987 353.217C35.6231 353.187 35.6474 353.156 35.6715 353.125L35.6954 353.095C35.714 353.071 35.7326 353.047 35.7511 353.023C35.7686 353 35.7861 352.977 35.8036 352.954C35.829 352.921 35.8543 352.887 35.8795 352.853L35.9552 352.75L36.0304 352.646C37.7354 350.266 38.7525 347.263 38.7525 343.999C38.7525 336.636 33.5749 330.6 26.9991 330.042C26.9997 330.028 27 330.014 27 330L27 328.496ZM33.9928 352.023C33.9557 352.069 33.9209 352.116 33.8883 352.165C31.5308 350.782 28.8471 350 26 350C23.1544 350 20.4721 350.781 18.1155 352.163C18.0827 352.114 18.0476 352.066 18.0103 352.02C16.3072 349.907 15.2535 347.103 15.2535 343.999C15.2535 337.192 20.2381 332 26.003 332C31.7677 332 36.7525 337.192 36.7525 343.999C36.7525 347.104 35.6976 349.91 33.9928 352.023ZM15.1278 357.292C12.8919 359.957 11.3949 363.458 11.0671 367.371C11.0227 367.906 11 368.45 11 369C11 371.44 11.4468 373.738 12.2459 375.809C14.5918 381.884 19.9722 385.998 25.9986 385.998C34.0792 385.998 40.9981 378.602 40.9981 368.999C40.9981 364.077 39.1555 359.687 36.2613 356.606C33.5475 353.731 29.9097 352 26 352C21.7888 352 17.8931 354.009 15.1278 357.292Z" fill="#424AD2"/>
</svg>
