<svg width="53" height="261" viewBox="0 0 53 261" fill="none" xmlns="http://www.w3.org/2000/svg">
<path d="M25.0001 0H27.0001V200H26.003H25.0001V0Z" fill="#4444DA"/>
<path d="M21 210C22.1046 210 23 209.105 23 208C23 206.895 22.1046 206 21 206C19.8954 206 19 206.895 19 208C19 209.105 19.8954 210 21 210Z" fill="#4444DA"/>
<path d="M33 208C33 209.105 32.1046 210 31 210C29.8954 210 29 209.105 29 208C29 206.895 29.8954 206 31 206C32.1046 206 33 206.895 33 208Z" fill="#4444DA"/>
<path d="M25 229C25 228.448 25.4477 228 26 228C26.5523 228 27 228.448 27 229V248.1C29.2822 248.563 31 250.581 31 253C31 253.552 30.5523 254 30 254C29.4477 254 29 253.552 29 253C29 251.343 27.6569 250 26 250C24.3431 250 23 251.343 23 253C23 253.552 22.5523 254 22 254C21.4477 254 21 253.552 21 253C21 250.581 22.7178 248.563 25 248.1V229Z" fill="#4444DA"/>
<path fill-rule="evenodd" clip-rule="evenodd" d="M26.003 200C33.0443 200 38.7525 206.268 38.7525 213.999C38.7525 217.263 37.7354 220.266 36.0304 222.646L35.9552 222.75L35.8795 222.853C35.8189 222.934 35.7576 223.015 35.6954 223.095L35.6715 223.125C35.6474 223.156 35.6231 223.187 35.5987 223.217L35.5496 223.279C36.7963 224.227 37.9245 225.355 38.9039 226.63C41.8729 225.617 46.6183 222.262 50.0716 213.628C50.2767 213.115 50.8585 212.866 51.3714 213.071C51.8841 213.276 52.1336 213.858 51.9285 214.371C48.474 223.007 43.6538 226.914 40.0691 228.332C41.0679 229.974 41.8426 231.8 42.344 233.755C42.5331 233.683 42.7457 233.667 42.9564 233.723C46.0711 234.547 49.828 236.208 52.7291 239.316C53.106 239.72 53.0841 240.353 52.6803 240.729C52.2767 241.106 51.6439 241.084 51.2669 240.681C48.7945 238.032 45.5678 236.528 42.7506 235.739C42.9146 236.799 43 237.888 43 239C43 241.479 42.5752 243.847 41.8026 246.018C41.8851 246.035 41.9668 246.063 42.046 246.102C45.4969 247.814 49.7777 251.754 52.9266 259.626C53.1317 260.139 52.8822 260.721 52.3695 260.926C51.8565 261.131 51.2747 260.882 51.0697 260.369C48.0699 252.87 44.0929 249.35 41.1573 247.894C41.1214 247.876 41.087 247.857 41.0541 247.835C38.2087 253.879 32.5349 258 26 258C19.6209 258 14.0625 254.073 11.1543 248.264C8.30712 249.91 4.70195 253.442 1.93099 260.369C1.72591 260.882 1.14388 261.131 0.631182 260.926C0.118487 260.721 -0.131025 260.139 0.0740534 259.626C3.04012 252.211 7.01058 248.285 10.3463 246.423C9.47908 244.142 8.99935 241.633 8.99935 238.999C8.99935 237.999 9.06844 237.018 9.2015 236.06C6.65413 236.912 3.90169 238.355 1.73104 240.681C1.35408 241.084 0.72127 241.106 0.317706 240.729C-0.0861027 240.353 -0.107831 239.72 0.268878 239.316C3.04573 236.341 6.60579 234.692 9.63484 233.834C10.1356 231.849 10.9178 229.995 11.93 228.331C8.34578 226.912 3.52693 223.005 0.073321 214.371C-0.131757 213.858 0.117511 213.276 0.63045 213.071C1.14315 212.866 1.72518 213.115 1.93025 213.628C5.38265 222.259 10.1261 225.615 13.0953 226.629C13.87 225.621 14.7376 224.704 15.6834 223.896C15.827 223.773 15.9722 223.653 16.1192 223.535C16.2296 223.447 16.3409 223.36 16.4532 223.275C16.3905 223.197 16.3284 223.118 16.2672 223.039C16.1668 222.909 16.0684 222.776 15.9722 222.642C14.2691 220.262 13.2535 217.261 13.2535 213.999C13.2535 206.268 18.9615 200 26.003 200ZM33.8883 222.165C33.9209 222.116 33.9557 222.069 33.9928 222.023C35.6976 219.91 36.7525 217.104 36.7525 213.999C36.7525 207.192 31.7677 202 26.003 202C20.2381 202 15.2535 207.192 15.2535 213.999C15.2535 217.103 16.3072 219.907 18.0103 222.02C18.0476 222.066 18.0827 222.114 18.1155 222.163C20.4721 220.781 23.1544 220 26 220C28.8471 220 31.5308 220.782 33.8883 222.165ZM11.0671 237.371C11.3949 233.458 12.8919 229.957 15.1278 227.292C17.8931 224.009 21.7888 222 26 222C29.9097 222 33.5475 223.731 36.2613 226.606C39.1555 229.687 40.9981 234.077 40.9981 238.999C40.9981 248.602 34.0792 255.998 25.9986 255.998C19.9722 255.998 14.5918 251.884 12.2459 245.809C11.4468 243.738 11 241.44 11 239C11 238.45 11.0227 237.906 11.0671 237.371Z" fill="#4444DA"/>
</svg>
