<svg width="53" height="391" viewBox="0 0 53 391" fill="none" xmlns="http://www.w3.org/2000/svg">
<path d="M27 1C27 0.447266 26.5528 0 26 0C25.7871 0 25.5908 0.0664062 25.4287 0.178711C25.3379 0.242188 25.2578 0.320312 25.1924 0.410156C25.1143 0.517578 25.0567 0.640625 25.0254 0.773438C25.0088 0.845703 25 0.921875 25 1V2.50488C25 3.05664 25.4473 3.50488 26 3.50488C26.1621 3.50488 26.3154 3.46582 26.4512 3.39746C26.6279 3.30762 26.7744 3.16797 26.8711 2.99609C26.9531 2.85156 27 2.68359 27 2.50488V1Z" fill="#424AD2"/>
<path d="M27 7.51953C27 6.96777 26.5528 6.51953 26 6.51953C25.4473 6.51953 25 6.96777 25 7.51953V10.5293C25 11.0811 25.4473 11.5293 26 11.5293C26.5528 11.5293 27 11.0811 27 10.5293V7.51953Z" fill="#424AD2"/>
<path d="M26 14.5439C26.5528 14.5439 27 14.9922 27 15.5439V18.5537C27 19.1055 26.5528 19.5537 26 19.5537C25.833 19.5537 25.6758 19.5127 25.5381 19.4404C25.4356 19.3867 25.3428 19.3154 25.2647 19.2305C25.2383 19.2021 25.2129 19.1719 25.1904 19.1406C25.1211 19.0449 25.0674 18.9355 25.0352 18.8184C25.0244 18.7783 25.0156 18.7363 25.0098 18.6943C25.0039 18.6484 25 18.6016 25 18.5537V15.5439C25 14.9922 25.4473 14.5439 26 14.5439Z" fill="#424AD2"/>
<path d="M27 23.5684C27 23.0166 26.5528 22.5684 26 22.5684C25.4473 22.5684 25 23.0166 25 23.5684V26.5781C25 27.1299 25.4473 27.5781 26 27.5781C26.249 27.5781 26.4776 27.4873 26.6524 27.3359C26.7422 27.2588 26.8184 27.166 26.876 27.0615C26.9551 26.918 27 26.7529 27 26.5781V23.5684Z" fill="#424AD2"/>
<path d="M26 30.5928C26.5528 30.5928 27 31.041 27 31.5928V34.6025C27 35.1543 26.5528 35.6025 26 35.6025C25.6494 35.6025 25.3418 35.4229 25.1641 35.1504C25.0606 34.9932 25 34.8047 25 34.6025V31.5928C25 31.041 25.4473 30.5928 26 30.5928Z" fill="#424AD2"/>
<path d="M26.6699 38.875C26.4932 38.7148 26.2578 38.6172 26 38.6172C25.4473 38.6172 25 39.0654 25 39.6172V42.627C25 43.1787 25.4473 43.627 26 43.627C26.042 43.627 26.083 43.625 26.124 43.6191L26.2002 43.6074C26.2656 43.5938 26.3281 43.5742 26.3887 43.5488C26.5049 43.5 26.6094 43.4297 26.6983 43.3428C26.7324 43.3096 26.7637 43.2744 26.793 43.2363C26.8594 43.1504 26.9121 43.0537 26.9473 42.9482L26.9697 42.875L26.9844 42.8076C26.9951 42.749 27 42.6885 27 42.627V39.6172C27 39.5654 26.9961 39.5146 26.9883 39.4658C26.9815 39.4189 26.9707 39.373 26.958 39.3291C26.9434 39.2803 26.9248 39.2324 26.9033 39.1875C26.8467 39.0684 26.7666 38.9619 26.6699 38.875Z" fill="#424AD2"/>
<path d="M26 46.6416C26.5528 46.6416 27 47.0898 27 47.6416V50.6514C27 51.2031 26.5528 51.6514 26 51.6514C25.4473 51.6514 25 51.2031 25 50.6514V47.6416C25 47.0898 25.4473 46.6416 26 46.6416Z" fill="#424AD2"/>
<path d="M27 55.666C27 55.1143 26.5528 54.666 26 54.666C25.4473 54.666 25 55.1143 25 55.666V58.6758C25 59.0107 25.1651 59.3066 25.417 59.4883C25.499 59.5469 25.5899 59.5938 25.6875 59.626C25.7861 59.6582 25.8906 59.6758 26 59.6758C26.5528 59.6758 27 59.2275 27 58.6758V55.666Z" fill="#424AD2"/>
<path d="M26 62.6904C26.5528 62.6904 27 63.1387 27 63.6904V66.6992C27 67.252 26.5528 67.6992 26 67.6992C25.4473 67.6992 25 67.252 25 66.6992V63.6904C25 63.1387 25.4473 62.6904 26 62.6904Z" fill="#424AD2"/>
<path d="M27 71.7148C27 71.1631 26.5528 70.7148 26 70.7148C25.4473 70.7148 25 71.1631 25 71.7148V74.7236C25 74.9111 25.0518 75.0859 25.1406 75.2354L25.1611 75.2666L25.1934 75.3135L25.2295 75.3613C25.2588 75.3965 25.2901 75.4297 25.3242 75.4609C25.502 75.624 25.7393 75.7236 26 75.7236C26.3115 75.7236 26.5899 75.582 26.7735 75.3594C26.8399 75.2773 26.8945 75.1855 26.9336 75.085C26.9766 74.9727 27 74.8506 27 74.7236V71.7148Z" fill="#424AD2"/>
<path d="M26 78.7393C26.5528 78.7393 27 79.1875 27 79.7393V82.748C27 83.3008 26.5528 83.748 26 83.748C25.4473 83.748 25 83.3008 25 82.748V79.7393C25 79.1875 25.4473 78.7393 26 78.7393Z" fill="#424AD2"/>
<path d="M27 87.7637C27 87.2119 26.5528 86.7637 26 86.7637C25.4473 86.7637 25 87.2119 25 87.7637V90.7725C25 90.9463 25.044 91.1104 25.1221 91.2529C25.292 91.5625 25.6211 91.7725 26 91.7725C26.5528 91.7725 27 91.3252 27 90.7725V87.7637Z" fill="#424AD2"/>
<path d="M26.7549 95.1318C26.9072 95.3076 27 95.5371 27 95.7881V98.7969C27 99.3496 26.5528 99.7969 26 99.7969C25.4473 99.7969 25 99.3496 25 98.7969V95.7881C25 95.5967 25.0537 95.418 25.1475 95.2666C25.1934 95.1914 25.249 95.123 25.3125 95.0625C25.4912 94.8926 25.7334 94.7881 26 94.7881L26.0752 94.791L26.1563 94.7998C26.1953 94.8066 26.2344 94.8145 26.2715 94.8252C26.3028 94.834 26.333 94.8438 26.3623 94.8555C26.5147 94.915 26.6494 95.0098 26.7549 95.1318Z" fill="#424AD2"/>
<path d="M27 103.812C27 103.26 26.5528 102.812 26 102.812C25.4473 102.812 25 103.26 25 103.812V106.821C25 107.374 25.4473 107.821 26 107.821C26.5528 107.821 27 107.374 27 106.821V103.812Z" fill="#424AD2"/>
<path d="M26 110.837C26.5528 110.837 27 111.284 27 111.837V114.846C27 115.398 26.5528 115.846 26 115.846C25.4473 115.846 25 115.398 25 114.846V111.837C25 111.284 25.4473 110.837 26 110.837Z" fill="#424AD2"/>
<path d="M27 119.861C27 119.309 26.5528 118.861 26 118.861C25.4473 118.861 25 119.309 25 119.861V122.87C25 123.423 25.4473 123.87 26 123.87C26.0684 123.87 26.1348 123.863 26.1992 123.851L26.2598 123.835L26.3174 123.818L26.3916 123.79L26.4287 123.774C26.7666 123.613 27 123.27 27 122.87V119.861Z" fill="#424AD2"/>
<path d="M26 126.886C26.2256 126.886 26.4336 126.96 26.6016 127.086C26.8438 127.269 27 127.559 27 127.886V130.895C27 131.447 26.5528 131.895 26 131.895C25.4473 131.895 25 131.447 25 130.895V127.886C25 127.333 25.4473 126.886 26 126.886Z" fill="#424AD2"/>
<path d="M27 135.91C27 135.694 26.9317 135.495 26.8154 135.332C26.7178 135.193 26.586 135.081 26.4326 135.008C26.3018 134.945 26.1553 134.91 26 134.91C25.4473 134.91 25 135.357 25 135.91V138.919C25 139.472 25.4473 139.919 26 139.919C26.5528 139.919 27 139.472 27 138.919V135.91Z" fill="#424AD2"/>
<path d="M26 142.935C26.5528 142.935 27 143.382 27 143.935V146.943C27 147.183 26.916 147.402 26.7764 147.574C26.5928 147.8 26.3135 147.943 26 147.943C25.8311 147.943 25.6719 147.901 25.5322 147.828C25.4629 147.791 25.3985 147.746 25.3399 147.695C25.2451 147.612 25.167 147.512 25.1094 147.399C25.0733 147.329 25.0459 147.255 25.0274 147.177C25.0186 147.141 25.0117 147.104 25.0078 147.067C25.0029 147.027 25 146.985 25 146.943V143.935C25 143.382 25.4473 142.935 26 142.935Z" fill="#424AD2"/>
<path d="M27 151.959C27 151.406 26.5528 150.959 26 150.959C25.4473 150.959 25 151.406 25 151.959V154.968C25 155.521 25.4473 155.968 26 155.968C26.5528 155.968 27 155.521 27 154.968V151.959Z" fill="#424AD2"/>
<path d="M26 158.983C26.4336 158.983 26.8037 159.26 26.9414 159.646C26.9795 159.751 27 159.864 27 159.983V162.992C27 163.545 26.5528 163.992 26 163.992C25.6221 163.992 25.292 163.782 25.1221 163.473C25.044 163.33 25 163.167 25 162.992V159.983C25 159.693 25.124 159.432 25.3213 159.249C25.499 159.084 25.7373 158.983 26 158.983Z" fill="#424AD2"/>
<path d="M27 168.008C27 167.455 26.5528 167.008 26 167.008C25.7139 167.008 25.4561 167.128 25.2744 167.32C25.1045 167.499 25 167.741 25 168.008V171.017C25 171.569 25.4473 172.017 26 172.017C26.5528 172.017 27 171.569 27 171.017V168.008Z" fill="#424AD2"/>
<path d="M26 175.032C26.5528 175.032 27 175.479 27 176.032V179.041C27 179.594 26.5528 180.041 26 180.041C25.4473 180.041 25 179.594 25 179.041V176.032C25 175.479 25.4473 175.032 26 175.032Z" fill="#424AD2"/>
<path d="M27 184.057C27 183.504 26.5528 183.057 26 183.057C25.4473 183.057 25 183.504 25 184.057V187.065C25 187.343 25.1133 187.594 25.2949 187.775C25.4756 187.955 25.7246 188.065 26 188.065C26.5528 188.065 27 187.618 27 187.065V184.057Z" fill="#424AD2"/>
<path d="M26 191.081C26.5528 191.081 27 191.528 27 192.081V195.09C27 195.249 26.9629 195.399 26.8965 195.532C26.7959 195.736 26.6279 195.9 26.4209 195.997C26.293 196.057 26.1504 196.09 26 196.09C25.4473 196.09 25 195.643 25 195.09V192.081C25 191.528 25.4473 191.081 26 191.081Z" fill="#424AD2"/>
<path d="M27 200.105C27 199.553 26.5528 199.105 26 199.105C25.8955 199.105 25.7949 199.121 25.7002 199.151C25.6641 199.162 25.6289 199.175 25.5947 199.189C25.5606 199.205 25.5264 199.223 25.4942 199.242C25.376 199.312 25.2735 199.404 25.1934 199.514C25.0713 199.679 25 199.884 25 200.105V203.114C25 203.223 25.0176 203.327 25.0498 203.426C25.1055 203.597 25.2051 203.747 25.3369 203.863C25.5127 204.02 25.7451 204.114 26 204.114C26.5528 204.114 27 203.667 27 203.114V200.105Z" fill="#424AD2"/>
<path d="M26 207.13C26.5528 207.13 27 207.577 27 208.13V211.139C27 211.691 26.5528 212.139 26 212.139C25.4473 212.139 25 211.691 25 211.139V208.13C25 207.577 25.4473 207.13 26 207.13Z" fill="#424AD2"/>
<path d="M27 216.154C27 215.602 26.5528 215.154 26 215.154C25.7324 215.154 25.4893 215.26 25.3096 215.431C25.1192 215.612 25 215.869 25 216.154V219.163C25 219.715 25.4473 220.163 26 220.163C26.5528 220.163 27 219.715 27 219.163V216.154Z" fill="#424AD2"/>
<path d="M26 223.179C26.5528 223.179 27 223.626 27 224.179V227.188C27 227.506 26.8506 227.79 26.6182 227.974C26.4483 228.107 26.2334 228.188 26 228.188C25.7031 228.188 25.4365 228.059 25.2539 227.854C25.0957 227.677 25 227.443 25 227.188V224.179C25 223.626 25.4473 223.179 26 223.179Z" fill="#424AD2"/>
<path d="M27 232.203C27 231.65 26.5528 231.203 26 231.203C25.7666 231.203 25.5518 231.283 25.3809 231.417L25.3447 231.447L25.3047 231.483L25.2774 231.512C25.2608 231.528 25.2442 231.547 25.2295 231.565C25.1944 231.608 25.1621 231.654 25.1338 231.703C25.0488 231.85 25 232.021 25 232.203V235.212C25 235.764 25.4473 236.212 26 236.212C26.3877 236.212 26.7236 235.991 26.8897 235.669C26.9043 235.642 26.917 235.613 26.9287 235.584C26.9444 235.546 26.957 235.507 26.9678 235.466C26.9805 235.415 26.9893 235.363 26.9951 235.311L26.9981 235.262L27 235.212V232.203Z" fill="#424AD2"/>
<path d="M26 239.227C26.5528 239.227 27 239.675 27 240.227V243.236C27 243.788 26.5528 244.236 26 244.236C25.4473 244.236 25 243.788 25 243.236V240.227C25 239.675 25.4473 239.227 26 239.227Z" fill="#424AD2"/>
<path d="M26.3916 247.33C26.2715 247.279 26.1387 247.251 26 247.251C25.4473 247.251 25 247.699 25 248.251V251.261C25 251.397 25.0274 251.528 25.0781 251.647L25.1192 251.735L25.1592 251.803C25.3379 252.078 25.6475 252.261 26 252.261C26.5528 252.261 27 251.812 27 251.261V248.251C27 248.183 26.9932 248.116 26.9795 248.053C26.9727 248.018 26.9639 247.982 26.9531 247.949C26.9395 247.905 26.9229 247.862 26.9033 247.821C26.8457 247.699 26.7637 247.591 26.6641 247.502C26.6387 247.479 26.6123 247.458 26.584 247.438C26.5244 247.395 26.46 247.358 26.3916 247.33Z" fill="#424AD2"/>
<path d="M26 255.275C26.5528 255.275 27 255.724 27 256.275V259.285C27 259.594 26.8604 259.869 26.6406 260.053C26.5742 260.108 26.5 260.156 26.4199 260.193C26.293 260.252 26.1504 260.285 26 260.285C25.4473 260.285 25 259.837 25 259.285V256.275C25 255.724 25.4473 255.275 26 255.275Z" fill="#424AD2"/>
<path d="M27 264.3C27 263.748 26.5528 263.3 26 263.3C25.4473 263.3 25 263.748 25 264.3V267.31C25 267.861 25.4473 268.31 26 268.31C26.5528 268.31 27 267.861 27 267.31V264.3Z" fill="#424AD2"/>
<path d="M26 271.324C26.2656 271.324 26.5069 271.428 26.6856 271.596C26.8789 271.778 27 272.037 27 272.324V275.334C27 275.6 26.8965 275.841 26.7276 276.021C26.5459 276.214 26.2871 276.334 26 276.334C25.4473 276.334 25 275.886 25 275.334V272.324C25 271.772 25.4473 271.324 26 271.324Z" fill="#424AD2"/>
<path d="M27 280.349C27 279.797 26.5528 279.349 26 279.349C25.4473 279.349 25 279.797 25 280.349V283.358C25 283.91 25.4473 284.358 26 284.358C26.5528 284.358 27 283.91 27 283.358V280.349Z" fill="#424AD2"/>
<path d="M26 287.373C26.5528 287.373 27 287.821 27 288.373V291.383C27 291.935 26.5528 292.383 26 292.383C25.4473 292.383 25 291.935 25 291.383V288.373C25 287.821 25.4473 287.373 26 287.373Z" fill="#424AD2"/>
<path d="M27 296.397C27 295.846 26.5528 295.397 26 295.397C25.6797 295.397 25.3955 295.548 25.2119 295.781C25.0791 295.951 25 296.165 25 296.397V299.407C25 299.959 25.4473 300.407 26 300.407C26.5528 300.407 27 299.959 27 299.407V296.397Z" fill="#424AD2"/>
<path d="M26 303.422C26.2627 303.422 26.502 303.523 26.6807 303.689C26.8252 303.824 26.9307 304.001 26.9756 304.2C26.9912 304.271 27 304.346 27 304.422V307.432C27 307.487 26.9951 307.542 26.9863 307.596C26.9697 307.7 26.9365 307.799 26.8897 307.889C26.7236 308.211 26.3877 308.432 26 308.432C25.833 308.432 25.6758 308.391 25.5371 308.318C25.3945 308.244 25.2725 308.136 25.1807 308.005C25.1543 307.967 25.1299 307.928 25.1084 307.886C25.084 307.838 25.0635 307.788 25.0469 307.736C25.0166 307.641 25 307.538 25 307.432V304.422C25 303.87 25.4473 303.422 26 303.422Z" fill="#424AD2"/>
<path d="M27 312.446C27 311.895 26.5528 311.446 26 311.446C25.4473 311.446 25 311.895 25 312.446V315.456C25 316.008 25.4473 316.456 26 316.456C26.5528 316.456 27 316.008 27 315.456V312.446Z" fill="#424AD2"/>
<path d="M26 319.471C26.5528 319.471 27 319.919 27 320.471V323.48C27 324.032 26.5528 324.48 26 324.48C25.8135 324.48 25.6397 324.43 25.4903 324.341C25.3565 324.262 25.2422 324.151 25.1582 324.021C25.0576 323.864 25 323.68 25 323.48V320.471C25 319.919 25.4473 319.471 26 319.471Z" fill="#424AD2"/>
<path d="M23 338C23 339.104 22.1045 340 21 340C19.8955 340 19 339.104 19 338C19 337.802 19.0283 337.611 19.082 337.431C19.1055 337.35 19.1348 337.271 19.169 337.193C19.2168 337.085 19.2744 336.981 19.3399 336.884C19.5615 336.556 19.877 336.297 20.249 336.146C20.4805 336.052 20.7344 336 21 336C22.1045 336 23 336.896 23 338Z" fill="#424AD2"/>
<path d="M33 338C33 339.104 32.1045 340 31 340C29.8955 340 29 339.104 29 338C29 336.896 29.8955 336 31 336C31.7432 336 32.3916 336.405 32.7363 337.006C32.8145 337.143 32.877 337.29 32.9219 337.444C32.9727 337.621 33 337.808 33 338Z" fill="#424AD2"/>
<path fill-rule="evenodd" clip-rule="evenodd" d="M26 388C19.6211 388 14.0625 384.073 11.1543 378.265C8.30666 379.91 4.70217 383.442 1.93068 390.369C1.7256 390.882 1.14357 391.131 0.630877 390.926C0.118182 390.721 -0.130842 390.139 0.0742366 389.626C3.04006 382.211 7.01076 378.285 10.3467 376.423C9.47951 374.143 8.99904 371.633 8.99904 368.998C8.99904 367.999 9.06838 367.018 9.20119 366.061C6.65431 366.912 3.90139 368.355 1.73146 370.681C1.35451 371.084 0.721698 371.106 0.317401 370.729C0.234393 370.652 0.167987 370.564 0.117205 370.47C0.0381038 370.321 -0.000958699 370.156 1.78639e-05 369.991C0.00197099 369.749 0.0908382 369.507 0.268573 369.316C3.04592 366.341 6.60549 364.692 9.63478 363.834C10.1358 361.849 10.918 359.995 11.9297 358.33C8.34572 356.912 3.52736 353.005 0.0732601 344.371C-0.131818 343.858 0.117205 343.276 0.630877 343.071C0.871112 342.975 1.12697 342.979 1.35256 343.062C1.52248 343.126 1.67482 343.235 1.78908 343.382C1.8467 343.455 1.89455 343.537 1.93068 343.628C5.38283 352.259 10.126 355.615 13.0957 356.629C13.4414 356.179 13.8057 355.747 14.1875 355.335C14.6602 354.823 15.1602 354.343 15.6836 353.896C15.8272 353.773 15.9727 353.653 16.1192 353.535C16.2295 353.447 16.3408 353.36 16.4531 353.275L16.2676 353.039C16.167 352.909 16.0684 352.776 15.9727 352.642C14.2695 350.262 13.2539 347.261 13.2539 343.999C13.2539 336.638 18.4278 330.604 25.001 330.043L25 330V328.495C25 327.943 25.4473 327.495 26 327.495C26.5528 327.495 27 327.943 27 328.495V330L26.999 330.042C33.5752 330.601 38.7529 336.636 38.7529 343.999C38.7529 347.263 37.7354 350.266 36.0303 352.646L35.8799 352.854L35.8037 352.954L35.6953 353.095L35.6719 353.125L35.5987 353.218L35.5498 353.278C36.7959 354.227 37.9248 355.354 38.9043 356.63C41.8731 355.617 46.6182 352.262 50.0713 343.628C50.1612 343.402 50.3242 343.228 50.5225 343.12C50.7754 342.984 51.084 342.956 51.3711 343.071C51.8838 343.276 52.1338 343.858 51.9287 344.371C48.4737 353.007 43.6533 356.914 40.0694 358.331C40.7705 359.484 41.3613 360.729 41.8252 362.045C42.0215 362.603 42.1944 363.173 42.3438 363.755C42.5332 363.683 42.7461 363.667 42.9561 363.723C46.0713 364.547 49.8281 366.208 52.7295 369.316C52.961 369.563 53.042 369.896 52.9766 370.205C52.9356 370.399 52.8369 370.584 52.6807 370.729C52.2764 371.106 51.6436 371.084 51.2666 370.681C48.7949 368.031 45.5674 366.527 42.751 365.739C42.9151 366.799 43 367.889 43 369C43 371.479 42.5752 373.847 41.8028 376.019C41.8848 376.035 41.9668 376.063 42.0459 376.103C45.4971 377.814 49.7774 381.755 52.9268 389.626C53.1319 390.139 52.8819 390.721 52.3692 390.926C51.8565 391.131 51.2744 390.882 51.0694 390.369C48.0703 382.87 44.0928 379.351 41.1572 377.895C41.1211 377.876 41.0869 377.856 41.0537 377.835C38.209 383.879 32.5352 388 26 388ZM25.3369 358.251C25.5137 358.095 25.7461 358 26 358C26.5528 358 27 358.447 27 359V378.1C29.2822 378.563 31 380.581 31 383C31 383.796 30.8135 384.549 30.4824 385.217C36.4795 383.077 40.9981 376.758 40.9981 368.998C40.9981 364.076 39.1553 359.687 36.2617 356.606C33.5479 353.731 29.9102 352 26 352C21.7891 352 17.8936 354.009 15.1279 357.292C12.8916 359.957 11.3945 363.458 11.0674 367.371C11.0225 367.906 11 368.449 11 369C11 370.244 11.1162 371.45 11.336 372.609C11.5469 373.724 11.8545 374.794 12.2461 375.809C13.9883 380.321 17.4053 383.752 21.5176 385.218C21.1865 384.55 21 383.797 21 383C21 380.581 22.7178 378.563 25 378.1V359C25 358.701 25.1299 358.434 25.3369 358.251ZM33.8887 352.165C33.9209 352.116 33.9561 352.069 33.9932 352.023C35.6973 349.91 36.7529 347.104 36.7529 343.999C36.7529 337.192 31.7676 332 26.0029 332C20.2383 332 15.2539 337.192 15.2539 343.999C15.2539 347.103 16.3076 349.907 18.0108 352.02L18.0801 352.111L18.1153 352.163C20.4717 350.781 23.1543 350 26 350C28.8467 350 31.5313 350.782 33.8887 352.165Z" fill="#424AD2"/>
</svg>
